{"title":"Deewaar1975 Hindi DvD-2CD-Rip-by-Punjabi_Boy","uid":5870732,"size":1468860416,"categoryP":"video","categoryS":"movies","magnet":"?xt=urn:btih:7ac3f8d4c0dedb2c5598ebb458310680c60eb5f7&amp;dn=Deewaar1975+Hindi+DvD-2CD-Rip-by-Punjabi_Boy&amp;tr=udp%3A%2F%2Ftracker.openbittorrent.com%3A80&amp;tr=udp%3A%2F%2Fopen.demonii.com%3A1337&amp;tr=udp%3A%2F%2Ftracker.coppersurfer.tk%3A6969&amp;tr=udp%3A%2F%2Fexodus.desync.com%3A6969","seeders":0,"leechers":1,"uploader":"amanrulz","files":1,"time":1286439675,"description":"mastitorrents.com\n &lt;a href=&quot;\nhttp://mastitorrents.com/forums/index.php&quot; rel=&quot;nofollow&quot; target=&quot;_NEW&quot;&gt;\nhttp://mastitorrents.com/forums/index.php&lt;/a&gt;\n\nGeneral\nRipper : Rahul\nComplete name : Deewaar ( 1975 )\nFormat : AVI\nFormat/Info : Audio Video Interleave\nFile size : 1.37 GiB\nDuration : 2h 45mn\nOverall bit rate : 1 182 Kbps\nWriting application : VirtualDubMod 1.5.4.1 (build 2178/release)\nWriting library : VirtualDubMod build 2178/release\n\nVideo\nID : 0\nFormat : MPEG-4 Visual\nFormat profile : Advanced Simple@L5\nFormat settings, BVOP : Yes\nFormat settings, QPel : No\nFormat settings, GMC : No warppoints\nFormat settings, Matrix : Custom\nCodec ID : XVID\nCodec ID/Hint : XviD\nDuration : 2h 45mn\nBit rate : 982 Kbps\nWidth : 512 pixels\nHeight : 384 pixels\nDisplay aspect ratio : 4:3\nFrame rate : 29.970 fps\nColor space : YUV\nChroma subsampling : 4:2:0\nBit depth : 8 bits\nScan type : Progressive\nBits/(Pixel*Frame) : 0.167\nStream size : 1.14 GiB (83%)\nWriting library : XviD 1.2.1 (UTC 2008-12-04)\n\nAudio\nID : 1\nFormat : AC-3\nFormat/Info : Audio Coding 3\nMode extension : CM (complete main)\nCodec ID : 2000\nDuration : 2h 45mn\nBit rate mode : Constant\nBit rate : 192 Kbps\nChannel(s) : 2 channels\nChannel positions : Front: L R\nSampling rate : 48.0 KHz\nBit depth : 16 bits\nVideo delay : 31ms\nStream size : 227 MiB (16%)\nAlignment : Split accross interleaves","torrent":{"xt":"urn:btih:7ac3f8d4c0dedb2c5598ebb458310680c60eb5f7","amp;dn":"Deewaar1975+Hindi+DvD-2CD-Rip-by-Punjabi_Boy","amp;tr":["udp%3A%2F%2Ftracker.openbittorrent.com%3A80","udp%3A%2F%2Fopen.demonii.com%3A1337","udp%3A%2F%2Ftracker.coppersurfer.tk%3A6969","udp%3A%2F%2Fexodus.desync.com%3A6969"],"infoHash":"7ac3f8d4c0dedb2c5598ebb458310680c60eb5f7","infoHashBuffer":{"type":"Buffer","data":[122,195,248,212,192,222,219,44,85,152,235,180,88,49,6,128,198,14,181,247]},"announce":[],"urlList":[]}}